<svg aria-hidden="true" style="position: absolute; width: 0; height: 0; overflow: hidden;" version="1.1" xmlns="http://www.w3.org/2000/svg" xmlns:xlink="http://www.w3.org/1999/xlink">
<defs>
<symbol id="icon-calendar" viewBox="0 0 32 32">
<path fill="#4a56e2" style="fill: var(--color1, #4a56e2)" d="M11.2 14.4h-3.2v3.2h3.2v-3.2zM17.6 14.4h-3.2v3.2h3.2v-3.2zM24 14.4h-3.2v3.2h3.2v-3.2zM27.2 3.2h-1.6v-3.2h-3.2v3.2h-12.8v-3.2h-3.2v3.2h-1.6c-1.776 0-3.184 1.44-3.184 3.2l-0.016 22.4c0 1.76 1.424 3.2 3.2 3.2h22.4c1.76 0 3.2-1.44 3.2-3.2v-22.4c0-1.76-1.44-3.2-3.2-3.2zM27.2 28.8h-22.4v-17.6h22.4v17.6z"></path>
</symbol>
<symbol id="icon-close-cross" viewBox="0 0 32 32">
<path stroke-linejoin="miter" stroke-linecap="butt" stroke-miterlimit="4" stroke-width="1.7778" d="M1.778 1.778l28.444 28.444M1.778 30.222l28.444-28.444"></path>
</symbol>
<symbol id="icon-currency" viewBox="0 0 32 32">
<path d="M5.053 0c-2.791 0-5.053 2.262-5.053 5.053v21.895c0 2.79 2.262 5.053 5.053 5.053h21.895c2.79 0 5.053-2.262 5.053-5.053v-21.895c0-2.791-2.262-5.053-5.053-5.053h-21.895zM13.265 13.136c0 0.995 0.765 1.635 3.144 2.253s4.925 1.635 4.925 4.61c0 2.148-1.624 3.332-3.667 3.72v2.253h-3.143v-2.274c-2.012-0.43-3.73-1.718-3.856-4.013h2.305c0.115 1.236 0.964 2.2 3.123 2.2 2.316 0 2.829-1.153 2.829-1.876 0-0.974-0.524-1.896-3.143-2.525-2.923-0.702-4.925-1.907-4.925-4.327 0-2.022 1.635-3.342 3.667-3.783v-2.263h3.143v2.295c2.19 0.534 3.29 2.19 3.363 3.992h-2.316c-0.063-1.31-0.754-2.2-2.619-2.2-1.771 0-2.829 0.796-2.829 1.938z"></path>
</symbol>
<symbol id="icon-email" viewBox="0 0 32 32">
<path fill="#e0e0e0" style="fill: var(--color3, #e0e0e0)" d="M28.8 3.2h-25.6c-1.76 0-3.184 1.44-3.184 3.2l-0.016 19.2c0 1.76 1.44 3.2 3.2 3.2h25.6c1.76 0 3.2-1.44 3.2-3.2v-19.2c0-1.76-1.44-3.2-3.2-3.2zM28.8 9.6l-12.8 8-12.8-8v-3.2l12.8 8 12.8-8v3.2z"></path>
</symbol>
<symbol id="icon-exit" viewBox="0 0 32 32">
<path fill="#bdbdbd" style="fill: var(--color4, #bdbdbd)" d="M19.838 22.856h2.367v4.734c0 1.958-1.593 3.551-3.551 3.551h-14.262c-1.958 0-3.551-1.593-3.551-3.551v-23.198c0-1.958 1.593-3.551 3.551-3.551h14.262c1.958 0 3.551 1.593 3.551 3.551v4.734h-2.367v-4.734c0-0.652-0.531-1.183-1.183-1.183h-14.262c-0.652 0-1.183 0.531-1.183 1.183v23.198c0 0.652 0.531 1.183 1.183 1.183h14.262c0.653 0 1.183-0.531 1.183-1.183v-4.734zM25.578 10.412l-1.674 1.674 2.722 2.722h-15.31v2.367h15.31l-2.722 2.722 1.674 1.674 5.579-5.579-5.579-5.58z"></path>
</symbol>
<symbol id="icon-home" viewBox="0 0 32 32">
<path d="M3.556 0c-1.964 0-3.556 1.592-3.556 3.556v24.889c0 1.964 1.592 3.556 3.556 3.556h24.889c1.964 0 3.556-1.592 3.556-3.556v-24.889c0-1.964-1.592-3.556-3.556-3.556h-24.889zM13.867 17.987v6.902h-5.333v-9.203h-3.2l10.667-10.353 10.667 10.353h-3.2v9.203h-5.333v-6.902h-4.267z"></path>
</symbol>
<symbol id="icon-minus" viewBox="0 0 32 32">
<path fill="none" stroke="#fff" style="stroke: var(--color5, #fff)" stroke-linejoin="miter" stroke-linecap="butt" stroke-miterlimit="4" stroke-width="3.2" d="M0 16h32"></path>
</symbol>
<symbol id="icon-name" viewBox="0 0 32 32">
<path fill="#e0e0e0" style="fill: var(--color3, #e0e0e0)" d="M0 3.556v24.889c0 1.956 1.582 3.556 3.556 3.556h24.889c1.956 0 3.556-1.6 3.556-3.556v-24.889c0-1.956-1.6-3.556-3.556-3.556h-24.889c-1.973 0-3.556 1.6-3.556 3.556zM21.333 10.667c0 2.951-2.382 5.333-5.333 5.333s-5.333-2.382-5.333-5.333 2.382-5.333 5.333-5.333 5.333 2.382 5.333 5.333zM5.333 24.889c0-3.556 7.111-5.511 10.667-5.511s10.667 1.956 10.667 5.511v1.778h-21.333v-1.778z"></path>
</symbol>
<symbol id="icon-password" viewBox="0 0 32 32">
<path fill="#e0e0e0" style="fill: var(--color3, #e0e0e0)" d="M25.143 10.667h-1.524v-3.048c0-4.206-3.413-7.619-7.619-7.619s-7.619 3.413-7.619 7.619v3.048h-1.524c-1.676 0-3.048 1.371-3.048 3.048v15.238c0 1.676 1.371 3.048 3.048 3.048h18.286c1.676 0 3.048-1.371 3.048-3.048v-15.238c0-1.676-1.371-3.048-3.048-3.048zM16 24.381c-1.676 0-3.048-1.371-3.048-3.048s1.371-3.048 3.048-3.048 3.048 1.371 3.048 3.048-1.371 3.048-3.048 3.048zM20.724 10.667h-9.448v-3.048c0-2.606 2.118-4.724 4.724-4.724s4.724 2.118 4.724 4.724v3.048z"></path>
</symbol>
<symbol id="icon-plus" viewBox="0 0 32 32">
<path fill="none" stroke="#fff" style="stroke: var(--color5, #fff)" stroke-linejoin="miter" stroke-linecap="butt" stroke-miterlimit="4" stroke-width="3.2" d="M16 0v32M0 16h32"></path>
</symbol>
<symbol id="icon-statistics" viewBox="0 0 32 32">
<path d="M3.556 0h24.889c1.964 0 3.556 1.592 3.556 3.556v24.889c0 1.964-1.592 3.556-3.556 3.556h-24.889c-1.964 0-3.556-1.592-3.556-3.556v-24.889c0-1.964 1.592-3.556 3.556-3.556zM26.182 13.63c1.244 0 2.263-1.067 2.263-2.37s-1.018-2.37-2.263-2.37-2.263 1.067-2.263 2.37c0 0.213 0.023 0.415 0.079 0.604l-4.016 4.219c-0.181-0.059-0.385-0.083-0.588-0.083s-0.407 0.024-0.588 0.083l-2.885-3.022c0.057-0.19 0.079-0.403 0.079-0.616 0-1.304-1.018-2.37-2.263-2.37s-2.263 1.067-2.263 2.37c0 0.213 0.023 0.427 0.079 0.616l-5.159 5.393c-0.181-0.059-0.373-0.083-0.577-0.083-1.244 0-2.263 1.067-2.263 2.37s1.018 2.37 2.263 2.37 2.263-1.067 2.263-2.37c0-0.213-0.023-0.415-0.079-0.604l5.147-5.404c0.181 0.059 0.385 0.083 0.588 0.083s0.407-0.024 0.588-0.083l2.885 3.022c-0.057 0.19-0.079 0.403-0.079 0.616 0 1.304 1.018 2.37 2.263 2.37s2.263-1.067 2.263-2.37c0-0.213-0.023-0.427-0.079-0.616l4.027-4.207c0.181 0.059 0.373 0.083 0.577 0.083z"></path>
</symbol>
<symbol id="icon-wallet" viewBox="0 0 32 32">
<path fill="#24cca7" style="fill: var(--color6, #24cca7)" d="M3.755 7.619l16.211-4.537-0.859-1.779c-0.562-1.157-1.932-1.634-3.060-1.058l-14.513 7.375h2.219zM24.813 3.048c-0.195 0-0.391 0.029-0.586 0.087l-15.012 4.484h18.431l-0.693-2.779c-0.266-1.083-1.163-1.793-2.14-1.793z"></path>
<path fill="#4a56e2" style="fill: var(--color1, #4a56e2)" d="M28.36 8.573h-26.559c-0.568 0-1.074 0.26-1.405 0.67-0.151 0.189-0.266 0.406-0.331 0.645-0.040 0.15-0.065 0.307-0.065 0.467v19.862c0 0.984 0.805 1.783 1.797 1.783h26.559c0.992 0 1.797-0.799 1.797-1.783v-4.973h-10.662c-1.685 0-3.054-1.358-3.054-3.030v-3.964c0-0.82 0.331-1.565 0.866-2.111 0.474-0.485 1.11-0.813 1.822-0.895 0.119-0.014 0.241-0.021 0.363-0.021h10.666v-4.867c0.004-0.984-0.801-1.783-1.793-1.783z"></path>
<path fill="#4a56e2" style="fill: var(--color1, #4a56e2)" d="M31.414 16.926c-0.18-0.164-0.392-0.289-0.629-0.371-0.183-0.061-0.377-0.096-0.582-0.096h-10.712c-0.992 0-1.797 0.799-1.797 1.783v3.968c0 0.984 0.805 1.783 1.797 1.783h10.712c0.205 0 0.399-0.036 0.582-0.096 0.237-0.078 0.449-0.207 0.629-0.371 0.359-0.324 0.586-0.795 0.586-1.316v-3.968c0-0.52-0.226-0.991-0.586-1.316zM23.243 20.581c0 0.492-0.402 0.891-0.898 0.891h-0.596c-0.496 0-0.898-0.399-0.898-0.891v-0.592c0-0.285 0.133-0.538 0.345-0.699 0.155-0.118 0.345-0.193 0.553-0.193h0.596c0.496 0 0.898 0.399 0.898 0.891v0.592z"></path>
</symbol>
<symbol id="coin-svg" viewBox="0 0 32 32">
<path fill="#c0c9d2" style="fill: var(--color1, #c0c9d2)" d="M25.596 3.906c5.279 5.279 4.668 14.449-1.366 20.482s-15.203 6.644-20.482 1.366c-5.279-5.279-4.668-14.449 1.366-20.482s15.203-6.644 20.482-1.366z"></path>
<path fill="#e9eff5" style="fill: var(--color2, #e9eff5)" d="M13.22 26.539c-0 0-0.001 0-0.001 0-0.305 0-0.552-0.247-0.552-0.552s0.246-0.551 0.551-0.552h0c0.368-0.001 0.729-0.021 1.086-0.058l-0.046 0.004c0.018-0.002 0.039-0.003 0.060-0.003 0.305 0 0.552 0.247 0.552 0.552 0 0.287-0.219 0.523-0.499 0.549l-0.002 0c-0.38 0.038-0.765 0.058-1.145 0.060h-0.002zM9.99 26.045c-0.061-0-0.119-0.010-0.174-0.028l0.004 0.001c-0.438-0.143-0.795-0.285-1.141-0.446l0.063 0.026c-0.195-0.088-0.329-0.281-0.329-0.505 0-0.305 0.247-0.552 0.552-0.552 0.086 0 0.167 0.020 0.239 0.054l-0.003-0.001c0.31 0.141 0.632 0.266 0.96 0.373 0.224 0.074 0.383 0.281 0.383 0.525 0 0.305-0.247 0.552-0.552 0.552-0.001 0-0.001 0-0.002 0h0zM17.492 25.71c-0 0-0.001 0-0.001 0-0.305 0-0.552-0.247-0.552-0.552 0-0.233 0.144-0.432 0.348-0.513l0.004-0.001c0.404-0.157 0.719-0.3 1.027-0.454l-0.070 0.032c0.066-0.030 0.143-0.048 0.224-0.048 0.305 0 0.552 0.247 0.552 0.552 0 0.208-0.115 0.39-0.286 0.484l-0.003 0.001c-0.343 0.169-0.694 0.324-1.044 0.461-0.066 0.025-0.134 0.038-0.2 0.038zM6.279 23.788c-0 0-0 0-0.001 0-0.142 0-0.271-0.055-0.367-0.146l0 0c-0.274-0.271-0.531-0.557-0.77-0.858l-0.015-0.020c-0.065-0.089-0.104-0.201-0.104-0.322 0-0.305 0.247-0.552 0.552-0.552 0.167 0 0.316 0.074 0.417 0.19l0.001 0.001c0.207 0.263 0.433 0.517 0.673 0.756 0.213 0.213 0.222 0.563 0.013 0.78-0.11 0.114-0.255 0.172-0.4 0.172zM21.224 23.465c-0 0-0 0-0.001 0-0.305 0-0.552-0.247-0.552-0.552 0-0.168 0.075-0.318 0.193-0.419l0.001-0.001c0.263-0.224 0.52-0.462 0.764-0.706 0.101-0.101 0.24-0.163 0.394-0.163 0.152 0 0.29 0.061 0.39 0.16l-0-0c0.101 0.099 0.163 0.237 0.163 0.39 0 0.151-0.061 0.288-0.16 0.387v0l-0.007 0.007c-0.265 0.265-0.543 0.522-0.828 0.765-0.096 0.082-0.221 0.132-0.358 0.132h-0zM24.044 20.144c-0 0-0.001 0-0.001 0-0.304 0-0.551-0.247-0.551-0.551 0-0.105 0.030-0.204 0.081-0.288l-0.001 0.002c0.147-0.237 0.314-0.538 0.468-0.846l0.033-0.073c0.092-0.184 0.279-0.308 0.495-0.308 0.305 0 0.552 0.247 0.552 0.552 0 0.089-0.021 0.172-0.058 0.247l0.001-0.003c-0.204 0.415-0.386 0.743-0.58 1.062l0.034-0.061c-0.098 0.161-0.273 0.267-0.473 0.267-0 0-0.001 0-0.001 0h0zM4.020 20.095c-0.243-0-0.45-0.157-0.523-0.376l-0.001-0.004c-0.1-0.289-0.203-0.663-0.286-1.044l-0.013-0.071c-0.008-0.036-0.013-0.077-0.013-0.119 0-0.305 0.247-0.552 0.552-0.552 0.266 0 0.489 0.189 0.54 0.44l0.001 0.004c0.071 0.338 0.161 0.674 0.268 0.998 0.017 0.051 0.028 0.111 0.028 0.172 0 0.305-0.247 0.552-0.552 0.552-0 0-0 0-0.001 0h0zM25.617 16.086c-0 0-0.001 0-0.001 0-0.304 0-0.551-0.247-0.551-0.551 0-0.037 0.004-0.074 0.011-0.109l-0.001 0.004c0.067-0.343 0.118-0.689 0.151-1.031 0.038-0.272 0.268-0.478 0.547-0.478 0.305 0 0.552 0.247 0.552 0.552 0 0.012-0 0.024-0.001 0.036l0-0.002c-0.045 0.445-0.104 0.831-0.18 1.211l0.013-0.079c-0.051 0.256-0.274 0.446-0.541 0.446h-0zM3.569 15.775c-0 0-0 0-0 0-0.305 0-0.552-0.247-0.552-0.552 0-0.019 0.001-0.037 0.003-0.056l-0 0.002c0.036-0.376 0.092-0.757 0.165-1.133 0.051-0.256 0.274-0.447 0.542-0.447 0.305 0 0.552 0.247 0.552 0.552 0 0.037-0.004 0.073-0.011 0.108l0.001-0.004c-0.058 0.276-0.111 0.628-0.146 0.985l-0.004 0.046c-0.028 0.281-0.263 0.498-0.549 0.498v0zM25.61 11.74c-0.265-0-0.486-0.187-0.539-0.436l-0.001-0.004c-0.084-0.403-0.176-0.737-0.285-1.064l0.019 0.066c-0.020-0.054-0.031-0.117-0.031-0.182 0-0.305 0.247-0.552 0.552-0.552 0.248 0 0.457 0.163 0.527 0.388l0.001 0.004c0.119 0.363 0.218 0.738 0.297 1.115 0.007 0.034 0.011 0.072 0.011 0.112 0 0.305-0.247 0.552-0.552 0.552v0zM4.77 11.593c-0 0-0 0-0 0-0.304 0-0.551-0.247-0.551-0.551 0-0.089 0.021-0.172 0.058-0.246l-0.001 0.003c0.166-0.339 0.349-0.676 0.545-1.001 0.098-0.161 0.273-0.268 0.473-0.268 0.305 0 0.551 0.247 0.551 0.552 0 0.105-0.029 0.203-0.080 0.286l0.001-0.002c-0.179 0.298-0.347 0.607-0.499 0.919-0.092 0.184-0.279 0.309-0.495 0.309-0 0-0 0-0.001 0h0zM7.311 8.039c-0.001 0-0.002 0-0.003 0-0.149 0-0.284-0.060-0.383-0.157l0 0c-0.215-0.215-0.225-0.555-0.009-0.771l0.39 0.39-0.38-0.401c0.27-0.27 0.545-0.524 0.824-0.762 0.098-0.090 0.229-0.146 0.374-0.146 0.305 0 0.552 0.247 0.552 0.552 0 0.175-0.081 0.33-0.207 0.431l-0.001 0.001c-0.257 0.22-0.51 0.454-0.751 0.696-0.11 0.11-0.258 0.167-0.404 0.167zM23.796 7.802c-0 0-0 0-0 0-0.175 0-0.332-0.082-0.433-0.21l-0.001-0.001c-0.222-0.281-0.445-0.532-0.682-0.769l0 0c-0.216-0.216-0.227-0.577-0.012-0.792s0.553-0.227 0.769-0.012l-0.39 0.39 0.407-0.373c0.28 0.28 0.539 0.571 0.777 0.873 0.074 0.093 0.118 0.212 0.118 0.341 0 0.305-0.247 0.552-0.552 0.552v0zM10.838 5.502c-0.304-0.001-0.55-0.248-0.55-0.552 0-0.215 0.123-0.401 0.302-0.492l0.003-0.001c0.259-0.134 0.602-0.289 0.954-0.43l0.090-0.032c0.060-0.024 0.129-0.038 0.202-0.038 0.232 0 0.43 0.143 0.512 0.346l0.001 0.004c0.024 0.060 0.038 0.129 0.038 0.202 0 0.232-0.144 0.431-0.347 0.512l-0.004 0.001c-0.323 0.127-0.645 0.27-0.957 0.424-0.071 0.036-0.155 0.057-0.244 0.057-0 0-0.001 0-0.001 0h0zM20.359 5.108c-0.083 0-0.161-0.018-0.231-0.051l0.003 0.001c-0.254-0.12-0.572-0.246-0.898-0.353l-0.063-0.018c-0.221-0.075-0.377-0.281-0.377-0.523 0-0.305 0.247-0.552 0.552-0.552 0.059 0 0.115 0.009 0.169 0.026l-0.004-0.001c0.366 0.118 0.729 0.258 1.078 0.417 0.193 0.089 0.324 0.28 0.324 0.503 0 0.305-0.247 0.552-0.552 0.552-0 0-0 0-0 0h0zM15.016 4.282c-0 0-0 0-0.001 0-0.305 0-0.552-0.247-0.552-0.552 0-0.285 0.217-0.52 0.494-0.549l0.002-0c0.38-0.039 0.766-0.060 1.145-0.061h0.003c0 0 0.001 0 0.002 0 0.305 0 0.552 0.247 0.552 0.552s-0.246 0.551-0.55 0.552h-0c-0.345 0.002-0.695 0.020-1.039 0.056-0.015 0.002-0.033 0.003-0.052 0.003-0.002 0-0.003 0-0.005-0h0z"></path>
<path fill="#c0c9d2" style="fill: var(--color1, #c0c9d2)" d="M3.153 31.448c-1.521 0-2.759-1.238-2.759-2.759 0-0.305 0.247-0.552 0.552-0.552s0.552 0.247 0.552 0.552v0c0 0.913 0.743 1.655 1.655 1.655 0.305 0 0.552 0.247 0.552 0.552s-0.247 0.552-0.552 0.552v0zM30.739 3.862c-0.305 0-0.552-0.247-0.552-0.552v0c0-1.217-0.743-2.207-1.655-2.207-0.305 0-0.552-0.247-0.552-0.552s0.247-0.552 0.552-0.552v0c1.521 0 2.759 1.485 2.759 3.31 0 0.305-0.247 0.552-0.552 0.552v0zM25.222 30.897c-0.305 0-0.552-0.247-0.552-0.552s0.247-0.552 0.552-0.552v0c2.738 0 4.966-2.228 4.966-4.966 0-0.305 0.247-0.552 0.552-0.552s0.552 0.247 0.552 0.552v0c0 3.346-2.723 6.069-6.069 6.069zM29.084 32c-0.305 0-0.552-0.247-0.552-0.552s0.247-0.552 0.552-0.552v0c0.897 0 1.655-0.505 1.655-1.103 0-0.305 0.247-0.552 0.552-0.552s0.552 0.247 0.552 0.552v0c0 1.217-1.238 2.207-2.759 2.207z"></path>
<path fill="#a0aab4" style="fill: var(--color3, #a0aab4)" d="M24.273 24.388c-5.58 5.58-13.841 6.518-19.227 2.451 0.33 0.438 0.69 0.858 1.086 1.255 5.278 5.278 14.449 4.667 20.482-1.366s6.644-15.203 1.366-20.482c-0.383-0.381-0.793-0.737-1.225-1.065l-0.030-0.022c4.066 5.386 3.128 13.647-2.451 19.227z"></path>
<path fill="#c0c9d2" style="fill: var(--color1, #c0c9d2)" d="M24.647 23.982l2.348 2.348c0.254-0.27 0.5-0.546 0.733-0.827l-2.344-2.344c-0.255 0.302-0.496 0.57-0.744 0.831l0.007-0.007zM22.605 25.841l2.349 2.349c0.322-0.251 0.599-0.483 0.869-0.723l-0.017 0.015-2.345-2.345c-0.28 0.247-0.566 0.479-0.856 0.705zM26.384 21.818l2.348 2.348c0.213-0.314 0.415-0.633 0.604-0.956l-2.343-2.343c-0.231 0.391-0.433 0.701-0.644 1.004l0.035-0.053zM27.788 19.32l2.35 2.35c0.123-0.256 0.276-0.622 0.416-0.993l0.037-0.113-2.347-2.347c-0.178 0.481-0.332 0.845-0.498 1.202l0.041-0.099zM20.246 27.384l2.348 2.348c0.417-0.223 0.739-0.413 1.055-0.614l-0.068 0.040-2.35-2.349c-0.324 0.205-0.653 0.395-0.985 0.575zM17.522 28.561l2.348 2.348c0.5-0.162 0.878-0.304 1.249-0.46l-0.108 0.040-2.347-2.346c-0.265 0.116-0.643 0.258-1.028 0.386l-0.114 0.033zM13.59 29.31l2.35 2.35c0.533-0.031 1.019-0.083 1.498-0.158l-0.085 0.011-2.351-2.351c-0.472 0.071-0.942 0.122-1.412 0.148zM9.249 28.871l2.356 2.356c0.541 0.153 1.195 0.281 1.863 0.36l0.062 0.006-2.355-2.355c-0.731-0.085-1.385-0.214-2.020-0.388l0.093 0.022zM28.934 15.785l2.346 2.346c0.089-0.451 0.158-0.903 0.206-1.354l-2.349-2.349c-0.047 0.452-0.113 0.905-0.203 1.357zM31.546 14.497c-0.033-0.65-0.106-1.257-0.217-1.849l0.013 0.085-2.362-2.362c0.105 0.512 0.186 1.124 0.224 1.748l0.002 0.038 2.34 2.34z"></path>
</symbol>
<symbol id="coin" viewBox="0 0 32 32">
<path fill="#f4bf1a" style="fill: var(--color4, #f4bf1a)" d="M24.231 24.388c-5.58 5.58-13.841 6.518-19.227 2.451 0.33 0.438 0.69 0.858 1.086 1.255 5.278 5.278 14.449 4.667 20.482-1.366s6.644-15.203 1.365-20.482c-0.383-0.382-0.792-0.738-1.225-1.065l-0.030-0.022c4.066 5.386 3.128 13.647-2.451 19.227z"></path>
<path fill="#ffd949" style="fill: var(--color5, #ffd949)" d="M25.596 3.906c5.279 5.279 4.668 14.449-1.366 20.482s-15.203 6.644-20.482 1.366c-5.279-5.279-4.668-14.449 1.366-20.482s15.203-6.644 20.482-1.366z"></path>
<path fill="#f4bf1a" style="fill: var(--color4, #f4bf1a)" d="M12.74 27.138c-2.893 0-5.531-1.046-7.431-2.945-4.41-4.41-3.798-12.198 1.366-17.361 2.739-2.74 6.359-4.311 9.93-4.311 2.893 0 5.531 1.046 7.431 2.945 4.41 4.41 3.798 12.198-1.366 17.361-2.739 2.739-6.358 4.311-9.93 4.311z"></path>
<path fill="#dca815" style="fill: var(--color6, #dca815)" d="M24.605 23.982l2.348 2.348c0.254-0.27 0.5-0.546 0.733-0.827l-2.344-2.344c-0.255 0.302-0.496 0.57-0.744 0.831l0.007-0.007zM22.563 25.841l2.349 2.349c0.322-0.251 0.599-0.483 0.869-0.723l-0.017 0.015-2.345-2.345c-0.28 0.247-0.566 0.479-0.856 0.705zM26.343 21.818l2.348 2.348c0.213-0.314 0.415-0.633 0.604-0.956l-2.343-2.343c-0.235 0.395-0.436 0.705-0.647 1.009l0.038-0.057zM27.746 19.32l2.35 2.35c0.123-0.256 0.276-0.622 0.416-0.993l0.037-0.113-2.347-2.347c-0.179 0.485-0.333 0.849-0.5 1.206l0.043-0.103zM20.204 27.384l2.348 2.348c0.417-0.223 0.739-0.413 1.055-0.614l-0.068 0.040-2.35-2.349c-0.324 0.205-0.653 0.395-0.985 0.575zM17.48 28.561l2.348 2.348c0.5-0.162 0.878-0.304 1.249-0.46l-0.108 0.040-2.347-2.346c-0.265 0.116-0.643 0.258-1.028 0.386l-0.114 0.033zM13.548 29.31l2.35 2.35c0.533-0.031 1.019-0.083 1.498-0.158l-0.085 0.011-2.351-2.351c-0.472 0.071-0.942 0.122-1.412 0.148zM9.207 28.871l2.356 2.356c0.541 0.153 1.195 0.281 1.863 0.36l0.062 0.006-2.355-2.355c-0.731-0.085-1.385-0.214-2.020-0.388l0.093 0.022zM28.893 15.785l2.346 2.346c0.089-0.451 0.158-0.903 0.206-1.354l-2.349-2.349c-0.047 0.452-0.114 0.905-0.203 1.357zM31.505 14.497c-0.033-0.65-0.106-1.257-0.217-1.849l0.013 0.085-2.362-2.362c0.105 0.512 0.186 1.124 0.224 1.748l0.002 0.038 2.34 2.34z"></path>
<path fill="#d1d4d2" style="fill: var(--color7, #d1d4d2)" d="M3.153 31.448c-1.521 0-2.759-1.238-2.759-2.759 0-0.305 0.247-0.552 0.552-0.552s0.552 0.247 0.552 0.552v0c0 0.913 0.743 1.655 1.655 1.655 0.305 0 0.552 0.247 0.552 0.552s-0.247 0.552-0.552 0.552v0zM30.739 3.862c-0.305 0-0.552-0.247-0.552-0.552v0c0-1.217-0.743-2.207-1.655-2.207-0.305 0-0.552-0.247-0.552-0.552s0.247-0.552 0.552-0.552v0c1.521 0 2.759 1.485 2.759 3.31 0 0.305-0.247 0.552-0.552 0.552v0zM25.222 30.897c-0.305 0-0.552-0.247-0.552-0.552s0.247-0.552 0.552-0.552v0c2.738 0 4.966-2.228 4.966-4.966 0-0.305 0.247-0.552 0.552-0.552s0.552 0.247 0.552 0.552v0c0 3.346-2.723 6.069-6.069 6.069zM29.084 32c-0.305 0-0.552-0.247-0.552-0.552s0.247-0.552 0.552-0.552v0c0.897 0 1.655-0.505 1.655-1.103 0-0.305 0.247-0.552 0.552-0.552s0.552 0.247 0.552 0.552v0c0 1.217-1.238 2.207-2.759 2.207z"></path>
<path fill="#ffd949" style="fill: var(--color5, #ffd949)" d="M21.090 12.621c-0.132-3.212-2.498-4.452-6.123-4.456-0.161 0-0.318 0.005-0.473 0.015-1.129 0.074-2.181-0.105-2.941-0.619-0.307-0.208-0.552-0.426-0.707-0.654-0.070-0.104-0.265-0.032-0.275 0.1-0.018 0.228-0.030 0.496-0.025 0.791 0.015 1.116-0.095 0.95-0.775 2.003-0.36 0.558-0.666 1.2-0.883 1.881l-0.016 0.057c-0.494 0.202-0.897 0.635-1.012 1.168l-0.152 0.707c-0.138 0.639 0.167 1.24 0.712 1.508 0.083 1.59 0.671 3.012 2.082 4.008l-0.177 0.961c-0.046 0.248-0.225 0.442-0.461 0.5l-3.294 0.803c-0.856 0.252-1.511 1.005-1.727 1.981l-0.051 0.232c0.168 0.198 0.333 0.398 0.519 0.584 1.899 1.9 4.538 2.946 7.431 2.946 2.465 0 4.952-0.749 7.158-2.114l-3.757-2.899c-0.246-0.19-0.376-0.481-0.337-0.755l0.151-1.080c2.109-0.371 3.5-1.687 4.311-3.498 0.946-0.109 1.709-0.729 1.789-1.567l0.088-0.924c0.067-0.698-0.376-1.331-1.052-1.681z"></path>
</symbol>
<symbol id="banknot" viewBox="0 0 32 32">
<path  style="fill: var(--color8, #00AD84)" d="M0 7.333h32v17.334h-32z"></path>
<path  style="fill: var(--color9, #24CCA7)" d="M30 20.667v-9.334c-1.105 0-2-0.896-2-2h-24.004c0.002 0.035 0.004 0.076 0.004 0.117 0 0.003 0 0.005-0 0.008v-0c0 1.104-0.896 2-2 2v9.334c1.063 0 1.932 0.828 1.996 1.875h24.004c0-1.104 0.895-2 2-2z"></path>
<path  style="fill: var(--color8, #00AD84)" d="M20 16c0 2.209-1.791 4-4 4s-4-1.791-4-4c0-2.209 1.791-4 4-4s4 1.791 4 4z"></path>
</symbol>
<symbol id="coin-b" viewBox="0 0 32 32">
<path  style="fill: var(--color1, #4A56E2)" d="M25.596 3.906c5.279 5.279 4.668 14.449-1.366 20.482s-15.203 6.644-20.482 1.366c-5.279-5.279-4.668-14.449 1.366-20.482s15.203-6.644 20.482-1.366z"></path>
<path  style="fill: var(--color2, #e9eff5)" d="M13.22 26.539c-0 0-0.001 0-0.001 0-0.305 0-0.552-0.247-0.552-0.552s0.246-0.551 0.551-0.552h0c0.368-0.001 0.729-0.021 1.086-0.058l-0.046 0.004c0.018-0.002 0.039-0.003 0.060-0.003 0.305 0 0.552 0.247 0.552 0.552 0 0.287-0.219 0.523-0.499 0.549l-0.002 0c-0.38 0.038-0.765 0.058-1.145 0.060h-0.002zM9.99 26.045c-0.061-0-0.119-0.010-0.174-0.028l0.004 0.001c-0.438-0.143-0.795-0.285-1.141-0.446l0.063 0.026c-0.195-0.088-0.329-0.281-0.329-0.505 0-0.305 0.247-0.552 0.552-0.552 0.086 0 0.167 0.020 0.239 0.054l-0.003-0.001c0.31 0.141 0.632 0.266 0.96 0.373 0.224 0.074 0.383 0.281 0.383 0.525 0 0.305-0.247 0.552-0.552 0.552-0.001 0-0.001 0-0.002 0h0zM17.492 25.71c-0 0-0.001 0-0.001 0-0.305 0-0.552-0.247-0.552-0.552 0-0.233 0.144-0.432 0.348-0.513l0.004-0.001c0.404-0.157 0.719-0.3 1.027-0.454l-0.070 0.032c0.066-0.030 0.143-0.048 0.224-0.048 0.305 0 0.552 0.247 0.552 0.552 0 0.208-0.115 0.39-0.286 0.484l-0.003 0.001c-0.343 0.169-0.694 0.324-1.044 0.461-0.066 0.025-0.134 0.038-0.2 0.038zM6.279 23.788c-0 0-0 0-0.001 0-0.142 0-0.271-0.055-0.367-0.146l0 0c-0.274-0.271-0.531-0.557-0.77-0.858l-0.015-0.020c-0.065-0.089-0.104-0.201-0.104-0.322 0-0.305 0.247-0.552 0.552-0.552 0.167 0 0.316 0.074 0.417 0.19l0.001 0.001c0.207 0.263 0.433 0.517 0.673 0.756 0.213 0.213 0.222 0.563 0.013 0.78-0.11 0.114-0.255 0.172-0.4 0.172zM21.224 23.465c-0 0-0 0-0.001 0-0.305 0-0.552-0.247-0.552-0.552 0-0.168 0.075-0.318 0.193-0.419l0.001-0.001c0.263-0.224 0.52-0.462 0.764-0.706 0.101-0.101 0.24-0.163 0.394-0.163 0.152 0 0.29 0.061 0.39 0.16l-0-0c0.101 0.099 0.163 0.237 0.163 0.39 0 0.151-0.061 0.288-0.16 0.387v0l-0.007 0.007c-0.265 0.265-0.543 0.522-0.828 0.765-0.096 0.082-0.221 0.132-0.358 0.132h-0zM24.044 20.144c-0 0-0.001 0-0.001 0-0.304 0-0.551-0.247-0.551-0.551 0-0.105 0.030-0.204 0.081-0.288l-0.001 0.002c0.147-0.237 0.314-0.538 0.468-0.846l0.033-0.073c0.092-0.184 0.279-0.308 0.495-0.308 0.305 0 0.552 0.247 0.552 0.552 0 0.089-0.021 0.172-0.058 0.247l0.001-0.003c-0.204 0.415-0.386 0.743-0.58 1.062l0.034-0.061c-0.098 0.161-0.273 0.267-0.473 0.267-0 0-0.001 0-0.001 0h0zM4.020 20.095c-0.243-0-0.45-0.157-0.523-0.376l-0.001-0.004c-0.1-0.289-0.203-0.663-0.286-1.044l-0.013-0.071c-0.008-0.036-0.013-0.077-0.013-0.119 0-0.305 0.247-0.552 0.552-0.552 0.266 0 0.489 0.189 0.54 0.44l0.001 0.004c0.071 0.338 0.161 0.674 0.268 0.998 0.017 0.051 0.028 0.111 0.028 0.172 0 0.305-0.247 0.552-0.552 0.552-0 0-0 0-0.001 0h0zM25.617 16.086c-0 0-0.001 0-0.001 0-0.304 0-0.551-0.247-0.551-0.551 0-0.037 0.004-0.074 0.011-0.109l-0.001 0.004c0.067-0.343 0.118-0.689 0.151-1.031 0.038-0.272 0.268-0.478 0.547-0.478 0.305 0 0.552 0.247 0.552 0.552 0 0.012-0 0.024-0.001 0.036l0-0.002c-0.045 0.445-0.104 0.831-0.18 1.211l0.013-0.079c-0.051 0.256-0.274 0.446-0.541 0.446h-0zM3.569 15.775c-0 0-0 0-0 0-0.305 0-0.552-0.247-0.552-0.552 0-0.019 0.001-0.037 0.003-0.056l-0 0.002c0.036-0.376 0.092-0.757 0.165-1.133 0.051-0.256 0.274-0.447 0.542-0.447 0.305 0 0.552 0.247 0.552 0.552 0 0.037-0.004 0.073-0.011 0.108l0.001-0.004c-0.058 0.276-0.111 0.628-0.146 0.985l-0.004 0.046c-0.028 0.281-0.263 0.498-0.549 0.498v0zM25.61 11.74c-0.265-0-0.486-0.187-0.539-0.436l-0.001-0.004c-0.084-0.403-0.176-0.737-0.285-1.064l0.019 0.066c-0.020-0.054-0.031-0.117-0.031-0.182 0-0.305 0.247-0.552 0.552-0.552 0.248 0 0.457 0.163 0.527 0.388l0.001 0.004c0.119 0.363 0.218 0.738 0.297 1.115 0.007 0.034 0.011 0.072 0.011 0.112 0 0.305-0.247 0.552-0.552 0.552v0zM4.77 11.593c-0 0-0 0-0 0-0.304 0-0.551-0.247-0.551-0.551 0-0.089 0.021-0.172 0.058-0.246l-0.001 0.003c0.166-0.339 0.349-0.676 0.545-1.001 0.098-0.161 0.273-0.268 0.473-0.268 0.305 0 0.551 0.247 0.551 0.552 0 0.105-0.029 0.203-0.080 0.286l0.001-0.002c-0.179 0.298-0.347 0.607-0.499 0.919-0.092 0.184-0.279 0.309-0.495 0.309-0 0-0 0-0.001 0h0zM7.311 8.039c-0.001 0-0.002 0-0.003 0-0.149 0-0.284-0.060-0.383-0.157l0 0c-0.215-0.215-0.225-0.555-0.009-0.771l0.39 0.39-0.38-0.401c0.27-0.27 0.545-0.524 0.824-0.762 0.098-0.090 0.229-0.146 0.374-0.146 0.305 0 0.552 0.247 0.552 0.552 0 0.175-0.081 0.33-0.207 0.431l-0.001 0.001c-0.257 0.22-0.51 0.454-0.751 0.696-0.11 0.11-0.258 0.167-0.404 0.167zM23.796 7.802c-0 0-0 0-0 0-0.175 0-0.332-0.082-0.433-0.21l-0.001-0.001c-0.222-0.281-0.445-0.532-0.682-0.769l0 0c-0.216-0.216-0.227-0.577-0.012-0.792s0.553-0.227 0.769-0.012l-0.39 0.39 0.407-0.373c0.28 0.28 0.539 0.571 0.777 0.873 0.074 0.093 0.118 0.212 0.118 0.341 0 0.305-0.247 0.552-0.552 0.552v0zM10.838 5.502c-0.304-0.001-0.55-0.248-0.55-0.552 0-0.215 0.123-0.401 0.302-0.492l0.003-0.001c0.259-0.134 0.602-0.289 0.954-0.43l0.090-0.032c0.060-0.024 0.129-0.038 0.202-0.038 0.232 0 0.43 0.143 0.512 0.346l0.001 0.004c0.024 0.060 0.038 0.129 0.038 0.202 0 0.232-0.144 0.431-0.347 0.512l-0.004 0.001c-0.323 0.127-0.645 0.27-0.957 0.424-0.071 0.036-0.155 0.057-0.244 0.057-0 0-0.001 0-0.001 0h0zM20.359 5.108c-0.083 0-0.161-0.018-0.231-0.051l0.003 0.001c-0.254-0.12-0.572-0.246-0.898-0.353l-0.063-0.018c-0.221-0.075-0.377-0.281-0.377-0.523 0-0.305 0.247-0.552 0.552-0.552 0.059 0 0.115 0.009 0.169 0.026l-0.004-0.001c0.366 0.118 0.729 0.258 1.078 0.417 0.193 0.089 0.324 0.28 0.324 0.503 0 0.305-0.247 0.552-0.552 0.552-0 0-0 0-0 0h0zM15.016 4.282c-0 0-0 0-0.001 0-0.305 0-0.552-0.247-0.552-0.552 0-0.285 0.217-0.52 0.494-0.549l0.002-0c0.38-0.039 0.766-0.060 1.145-0.061h0.003c0 0 0.001 0 0.002 0 0.305 0 0.552 0.247 0.552 0.552s-0.246 0.551-0.55 0.552h-0c-0.345 0.002-0.695 0.020-1.039 0.056-0.015 0.002-0.033 0.003-0.052 0.003-0.002 0-0.003 0-0.005-0h0z"></path>
<path  style="fill: var(--color1, #c0c9d2)" d="M3.153 31.448c-1.521 0-2.759-1.238-2.759-2.759 0-0.305 0.247-0.552 0.552-0.552s0.552 0.247 0.552 0.552v0c0 0.913 0.743 1.655 1.655 1.655 0.305 0 0.552 0.247 0.552 0.552s-0.247 0.552-0.552 0.552v0zM30.739 3.862c-0.305 0-0.552-0.247-0.552-0.552v0c0-1.217-0.743-2.207-1.655-2.207-0.305 0-0.552-0.247-0.552-0.552s0.247-0.552 0.552-0.552v0c1.521 0 2.759 1.485 2.759 3.31 0 0.305-0.247 0.552-0.552 0.552v0zM25.222 30.897c-0.305 0-0.552-0.247-0.552-0.552s0.247-0.552 0.552-0.552v0c2.738 0 4.966-2.228 4.966-4.966 0-0.305 0.247-0.552 0.552-0.552s0.552 0.247 0.552 0.552v0c0 3.346-2.723 6.069-6.069 6.069zM29.084 32c-0.305 0-0.552-0.247-0.552-0.552s0.247-0.552 0.552-0.552v0c0.897 0 1.655-0.505 1.655-1.103 0-0.305 0.247-0.552 0.552-0.552s0.552 0.247 0.552 0.552v0c0 1.217-1.238 2.207-2.759 2.207z"></path>
<path  style="fill: var(--color3, #4A56E2)" d="M24.273 24.388c-5.58 5.58-13.841 6.518-19.227 2.451 0.33 0.438 0.69 0.858 1.086 1.255 5.278 5.278 14.449 4.667 20.482-1.366s6.644-15.203 1.366-20.482c-0.383-0.381-0.793-0.737-1.225-1.065l-0.030-0.022c4.066 5.386 3.128 13.647-2.451 19.227z"></path>
<path  style="fill: var(--color1, #c0c9d2)" d="M24.647 23.982l2.348 2.348c0.254-0.27 0.5-0.546 0.733-0.827l-2.344-2.344c-0.255 0.302-0.496 0.57-0.744 0.831l0.007-0.007zM22.605 25.841l2.349 2.349c0.322-0.251 0.599-0.483 0.869-0.723l-0.017 0.015-2.345-2.345c-0.28 0.247-0.566 0.479-0.856 0.705zM26.384 21.818l2.348 2.348c0.213-0.314 0.415-0.633 0.604-0.956l-2.343-2.343c-0.231 0.391-0.433 0.701-0.644 1.004l0.035-0.053zM27.788 19.32l2.35 2.35c0.123-0.256 0.276-0.622 0.416-0.993l0.037-0.113-2.347-2.347c-0.178 0.481-0.332 0.845-0.498 1.202l0.041-0.099zM20.246 27.384l2.348 2.348c0.417-0.223 0.739-0.413 1.055-0.614l-0.068 0.040-2.35-2.349c-0.324 0.205-0.653 0.395-0.985 0.575zM17.522 28.561l2.348 2.348c0.5-0.162 0.878-0.304 1.249-0.46l-0.108 0.040-2.347-2.346c-0.265 0.116-0.643 0.258-1.028 0.386l-0.114 0.033zM13.59 29.31l2.35 2.35c0.533-0.031 1.019-0.083 1.498-0.158l-0.085 0.011-2.351-2.351c-0.472 0.071-0.942 0.122-1.412 0.148zM9.249 28.871l2.356 2.356c0.541 0.153 1.195 0.281 1.863 0.36l0.062 0.006-2.355-2.355c-0.731-0.085-1.385-0.214-2.020-0.388l0.093 0.022zM28.934 15.785l2.346 2.346c0.089-0.451 0.158-0.903 0.206-1.354l-2.349-2.349c-0.047 0.452-0.113 0.905-0.203 1.357zM31.546 14.497c-0.033-0.65-0.106-1.257-0.217-1.849l0.013 0.085-2.362-2.362c0.105 0.512 0.186 1.124 0.224 1.748l0.002 0.038 2.34 2.34z"></path>
</symbol>
</defs>
</svg>
